<?xml version="1.0" encoding="utf-8"?>
<!-- Generator: Adobe Illustrator 18.1.1, SVG Export Plug-In . SVG Version: 6.00 Build 0)  -->
<!DOCTYPE svg PUBLIC "-//W3C//DTD SVG 1.1//EN" "http://www.w3.org/Graphics/SVG/1.1/DTD/svg11.dtd">
<svg version="1.1" id="Layer_1" xmlns="http://www.w3.org/2000/svg" xmlns:xlink="http://www.w3.org/1999/xlink" x="0px" y="0px"
	 viewBox="0 0 20.6 20.7" enable-background="new 0 0 20.6 20.7" xml:space="preserve">
<g>
	<path fill="#E0E0E1" d="M20.5,8.7c0,2.2-1.8,4-4,4.1v0H4.2v0c-2.2,0-4.1-1.8-4.1-4.1c0-1.8,1.2-3.4,2.8-3.9c0.5-1.7,2.2-3,4.1-3
		c0.7,0,1.4,0.2,2,0.5C9.7,1,11.1,0,12.7,0c2.2,0,4.1,1.8,4.1,4.1c0,0.2,0,0.4,0,0.6C18.8,4.8,20.5,6.6,20.5,8.7z"/>
	<path fill="none" stroke="#E0E0E1" stroke-linecap="round" stroke-miterlimit="10" d="M9,17.2c0,0,0.5-1.2,1.8-1.2s1.7,1.2,1.7,1.2
		"/>
	<path fill="none" stroke="#E0E0E1" stroke-linecap="round" stroke-miterlimit="10" d="M8.1,16.3c0,0,0.9-1.4,2.8-1.4
		s2.7,1.4,2.7,1.4"/>
	<path fill="none" stroke="#E0E0E1" stroke-linecap="round" stroke-miterlimit="10" d="M7.1,15.3c0,0,1.2-1.7,3.8-1.7
		s3.7,1.7,3.7,1.7"/>
	<circle fill="none" stroke="#E0E0E1" stroke-miterlimit="10" cx="10.9" cy="18.9" r="1.4"/>
</g>
<g>
	<path fill="#474646" d="M13.5,8.4H7.1c0,0,0,0,0,0V7.8c0,0,0,0,0,0h6.4c0,0,0,0,0,0L13.5,8.4C13.5,8.3,13.5,8.4,13.5,8.4z"/>
	<path fill="#474646" d="M10,11.3V4.9c0,0,0,0,0,0h0.5c0,0,0,0,0,0v6.4c0,0,0,0,0,0L10,11.3C10,11.3,10,11.3,10,11.3z"/>
	<path fill="#474646" d="M12.4,10.5L7.8,6c0,0,0,0,0-0.1l0.3-0.3c0,0,0,0,0.1,0l4.5,4.5c0,0,0,0,0,0.1L12.4,10.5
		C12.4,10.6,12.4,10.6,12.4,10.5z"/>
	<path fill="#474646" d="M7.8,10.2l4.5-4.5c0,0,0,0,0.1,0l0.3,0.3c0,0,0,0,0,0.1l-4.5,4.5c0,0,0,0-0.1,0L7.8,10.2
		C7.8,10.2,7.8,10.2,7.8,10.2z"/>
	<circle fill="#474646" cx="10.3" cy="8.1" r="2"/>
	<circle fill="none" stroke="#ECECEC" stroke-width="0.5" stroke-miterlimit="10" cx="10.3" cy="8.1" r="1"/>
</g>
</svg>
