<?xml version="1.0" encoding="utf-8"?>
<!-- Generator: Adobe Illustrator 18.1.0, SVG Export Plug-In . SVG Version: 6.00 Build 0)  -->
<!DOCTYPE svg PUBLIC "-//W3C//DTD SVG 1.1//EN" "http://www.w3.org/Graphics/SVG/1.1/DTD/svg11.dtd">
<svg version="1.1" id="Layer_1" xmlns="http://www.w3.org/2000/svg" xmlns:xlink="http://www.w3.org/1999/xlink" x="0px" y="0px"
	 viewBox="0 0 213.3 213.8" enable-background="new 0 0 213.3 213.8" xml:space="preserve">
<g>
	<circle fill="#062043" cx="107" cy="106.3" r="106.3"/>
	<g>
		<defs>
			<circle id="SVGID_11_" cx="107" cy="106.3" r="106.3"/>
		</defs>
		<clipPath id="SVGID_2_">
			<use xlink:href="#SVGID_11_"  overflow="visible"/>
		</clipPath>
		<g clip-path="url(#SVGID_2_)">
			<path fill="#E0E0E1" d="M128.3,192.9l-65.1-8.3c-10.8-1.4-18.4-11.2-17-22L63.9,24c1.4-10.8,11.2-18.4,22-17l65.1,8.3
				c10.8,1.4,18.4,11.2,17,22l-17.7,138.6C148.8,186.6,139,194.2,128.3,192.9z"/>
			<polygon fill="#A92A2D" points="116.8,147.3 85.7,143.4 88.5,120.6 92,31.8 93.4,20.8 140.2,26.7 138.8,37.8 119.7,124.6 			"/>
			<polygon fill="#A92A2D" points="84.5,152.5 81.6,175.3 112.8,179.3 115.7,156.5 			"/>
			<path fill="#E0E0E1" d="M165.1,224.7c-26-4.7-44-29-40.6-55.4l26,3.3C148.1,192.1,153.9,210.7,165.1,224.7z"/>
		</g>
	</g>
</g>
<linearGradient id="SVGID_4_" gradientUnits="userSpaceOnUse" x1="-88.2809" y1="-362.4509" x2="18.3858" y2="-362.4509" gradientTransform="matrix(0.7071 0.7071 -0.7071 0.7071 -87.2008 424.2713)">
	<stop  offset="0" style="stop-color:#FFFFFF"/>
	<stop  offset="4.800099e-02" style="stop-color:#E4E4E4;stop-opacity:0.952"/>
	<stop  offset="0.152" style="stop-color:#AFAFAF;stop-opacity:0.848"/>
	<stop  offset="0.2603" style="stop-color:#808080;stop-opacity:0.7397"/>
	<stop  offset="0.3706" style="stop-color:#595959;stop-opacity:0.6294"/>
	<stop  offset="0.4835" style="stop-color:#393939;stop-opacity:0.5165"/>
	<stop  offset="0.5998" style="stop-color:#202020;stop-opacity:0.4002"/>
	<stop  offset="0.7208" style="stop-color:#0E0E0E;stop-opacity:0.2792"/>
	<stop  offset="0.8497" style="stop-color:#030303;stop-opacity:0.1503"/>
	<stop  offset="1" style="stop-color:#000000;stop-opacity:0"/>
</linearGradient>
<path opacity="0.31" fill="url(#SVGID_4_)" d="M182.1,30.1c41.7,41.7,41.7,109.2,0,150.8s-109.2,41.7-150.8,0"/>
</svg>
