<?xml version="1.0" encoding="utf-8"?>
<!-- Generator: Adobe Illustrator 18.1.0, SVG Export Plug-In . SVG Version: 6.00 Build 0)  -->
<!DOCTYPE svg PUBLIC "-//W3C//DTD SVG 1.1//EN" "http://www.w3.org/Graphics/SVG/1.1/DTD/svg11.dtd">
<svg version="1.1" id="Layer_1" xmlns="http://www.w3.org/2000/svg" xmlns:xlink="http://www.w3.org/1999/xlink" x="0px" y="0px"
	 viewBox="0 0 213.3 213.8" enable-background="new 0 0 213.3 213.8" xml:space="preserve">
<g>
	<circle fill="#062043" cx="107.1" cy="107.1" r="107.1"/>
	<path fill="#E0E0E1" d="M201.1,98.9c0,20.6-16.5,37.4-37,37.8v0.1H49.4v-0.1c-20.9,0-37.8-16.9-37.8-37.8c0-17,11.2-31.3,26.5-36.1
		C43.2,46.7,58.2,35,76,35c6.7,0,13,1.7,18.6,4.6c6.1-12.8,19.2-21.7,34.3-21.7c21,0,37.9,17,37.9,37.9c0,1.8-0.1,3.6-0.4,5.3
		C185.8,62.8,201.1,79.1,201.1,98.9z"/>
	<path fill="none" stroke="#E0E0E1" stroke-width="6" stroke-linecap="round" stroke-miterlimit="10" d="M94.8,178.6
		c0,0,5.1-10.8,16.7-10.8s16.2,10.8,16.2,10.8"/>
	<path fill="none" stroke="#E0E0E1" stroke-width="6" stroke-linecap="round" stroke-miterlimit="10" d="M85.5,169.5
		c0,0,8-13.2,26.1-13.2s25.3,13.2,25.3,13.2"/>
	<path fill="none" stroke="#E0E0E1" stroke-width="6" stroke-linecap="round" stroke-miterlimit="10" d="M76.5,160.9
		c0,0,10.8-15.8,35.3-15.8s34.2,15.8,34.2,15.8"/>
	<circle fill="#E0E0E1" cx="112" cy="194.4" r="12.6"/>
</g>
<linearGradient id="SVGID_2_" gradientUnits="userSpaceOnUse" x1="-224.9136" y1="-696.5519" x2="-118.2469" y2="-696.5519" gradientTransform="matrix(0.7041 0.7041 -0.7086 0.7086 -227.1514 759.6864)">
	<stop  offset="0" style="stop-color:#FFFFFF"/>
	<stop  offset="4.800099e-02" style="stop-color:#E4E4E4;stop-opacity:0.952"/>
	<stop  offset="0.152" style="stop-color:#AFAFAF;stop-opacity:0.848"/>
	<stop  offset="0.2603" style="stop-color:#808080;stop-opacity:0.7397"/>
	<stop  offset="0.3706" style="stop-color:#595959;stop-opacity:0.6294"/>
	<stop  offset="0.4835" style="stop-color:#393939;stop-opacity:0.5165"/>
	<stop  offset="0.5998" style="stop-color:#202020;stop-opacity:0.4002"/>
	<stop  offset="0.7208" style="stop-color:#0E0E0E;stop-opacity:0.2792"/>
	<stop  offset="0.8497" style="stop-color:#030303;stop-opacity:0.1503"/>
	<stop  offset="1" style="stop-color:#000000;stop-opacity:0"/>
</linearGradient>
<path opacity="0.31" fill="url(#SVGID_2_)" d="M183.6,32.2c41.5,41.5,41.3,108.9-0.5,150.7s-109.2,42-150.7,0.5"/>
</svg>
