<?xml version="1.0" encoding="utf-8"?>
<!-- Generator: Adobe Illustrator 18.1.0, SVG Export Plug-In . SVG Version: 6.00 Build 0)  -->
<!DOCTYPE svg PUBLIC "-//W3C//DTD SVG 1.1//EN" "http://www.w3.org/Graphics/SVG/1.1/DTD/svg11.dtd">
<svg version="1.1" id="Layer_1" xmlns="http://www.w3.org/2000/svg" xmlns:xlink="http://www.w3.org/1999/xlink" x="0px" y="0px"
	 viewBox="0 0 213.3 213.8" enable-background="new 0 0 213.3 213.8" xml:space="preserve">
<g>
	<circle fill="#A5CC46" cx="106.6" cy="106.6" r="106.6"/>
	<g>
		<polygon fill="#ECECEC" points="158.9,186.1 70.6,186.1 48.4,160.7 48.4,66.1 48.4,29.3 83.4,29.3 158.9,29.3 		"/>
		<polygon fill="#A8A8A9" points="48.4,160.7 70.6,160.7 70.6,186.1 		"/>
		<polygon fill="#E0E0E1" points="89.7,186.1 70.4,186.1 70.4,160.7 		"/>
		<rect x="55.8" y="43.8" fill="#A8A8A9" width="81.9" height="5.3"/>
		<rect x="55.8" y="59.8" fill="#A8A8A9" width="81.9" height="5.3"/>
		<rect x="55.8" y="76.5" fill="#A8A8A9" width="81.9" height="5.3"/>
		<g>
			<polygon fill="#A92A2D" points="155.3,153.6 124.1,149.6 126.9,126.8 130.4,37.7 131.8,26.6 178.7,32.6 177.3,43.7 158.2,130.8 
							"/>
			<polygon fill="#A92A2D" points="122.8,158.8 120,181.7 151.2,185.7 154.2,162.8 			"/>
		</g>
	</g>
</g>
<linearGradient id="SVGID_2_" gradientUnits="userSpaceOnUse" x1="-159.5572" y1="-531.3136" x2="-52.8905" y2="-531.3136" gradientTransform="matrix(0.7071 0.7071 -0.7071 0.7071 -157.5359 594.0753)">
	<stop  offset="0" style="stop-color:#FFFFFF"/>
	<stop  offset="4.800099e-02" style="stop-color:#E4E4E4;stop-opacity:0.952"/>
	<stop  offset="0.152" style="stop-color:#AFAFAF;stop-opacity:0.848"/>
	<stop  offset="0.2603" style="stop-color:#808080;stop-opacity:0.7397"/>
	<stop  offset="0.3706" style="stop-color:#595959;stop-opacity:0.6294"/>
	<stop  offset="0.4835" style="stop-color:#393939;stop-opacity:0.5165"/>
	<stop  offset="0.5998" style="stop-color:#202020;stop-opacity:0.4002"/>
	<stop  offset="0.7208" style="stop-color:#0E0E0E;stop-opacity:0.2792"/>
	<stop  offset="0.8497" style="stop-color:#030303;stop-opacity:0.1503"/>
	<stop  offset="1" style="stop-color:#000000;stop-opacity:0"/>
</linearGradient>
<path opacity="0.31" fill="url(#SVGID_2_)" d="M180.8,30.1c41.7,41.7,41.7,109.2,0,150.8s-109.2,41.7-150.8,0"/>
</svg>
