<?xml version="1.0" encoding="utf-8"?>
<!-- Generator: Adobe Illustrator 18.1.1, SVG Export Plug-In . SVG Version: 6.00 Build 0)  -->
<!DOCTYPE svg PUBLIC "-//W3C//DTD SVG 1.1//EN" "http://www.w3.org/Graphics/SVG/1.1/DTD/svg11.dtd">
<svg version="1.1" id="Layer_1" xmlns="http://www.w3.org/2000/svg" xmlns:xlink="http://www.w3.org/1999/xlink" x="0px" y="0px"
	 viewBox="0 0 20.6 20.7" enable-background="new 0 0 20.6 20.7" xml:space="preserve">
<g>
	<g>
		<g>
			<path fill="#ECECEC" d="M6.8,8.4c-2.9,0-5.2,2.3-5.2,5.2s2.3,5.2,5.2,5.2s5.2-2.3,5.2-5.2S9.7,8.4,6.8,8.4z M6.8,15.7
				c-1.2,0-2.1-1-2.1-2.1c0-1.2,1-2.1,2.1-2.1s2.1,1,2.1,2.1C9,14.8,8,15.7,6.8,15.7z"/>
		</g>
		<polygon fill="#ECECEC" points="8.4,9.9 5.2,9.9 5.8,6.8 7.9,6.8 		"/>
		<polygon fill="#ECECEC" points="5.4,9.9 3.1,12.1 1.3,9.5 2.8,8 		"/>
		<polygon fill="#ECECEC" points="3.2,12 3.2,15.2 0,14.6 0,12.5 		"/>
		<polygon fill="#ECECEC" points="3.1,15.1 5.4,17.3 2.8,19.2 1.3,17.7 		"/>
		<polygon fill="#ECECEC" points="5.2,17.3 8.4,17.3 7.9,20.4 5.8,20.4 		"/>
		<polygon fill="#ECECEC" points="8.3,17.3 10.6,15.1 12.4,17.7 10.9,19.2 		"/>
		<polygon fill="#ECECEC" points="10.5,15.2 10.5,12 13.7,12.5 13.7,14.6 		"/>
		<polygon fill="#ECECEC" points="10.6,12.1 8.3,9.9 10.9,8 12.4,9.5 		"/>
	</g>
	<g>
		<g>
			<path fill="#ECECEC" d="M14.5,1.6c-2,0.6-3.1,2.7-2.5,4.7s2.7,3.1,4.7,2.5s3.1-2.7,2.5-4.7C18.6,2.1,16.5,1,14.5,1.6z M16.1,6.7
				c-0.8,0.3-1.7-0.2-1.9-1c-0.3-0.8,0.2-1.7,1-1.9s1.7,0.2,1.9,1C17.4,5.6,16.9,6.5,16.1,6.7z"/>
		</g>
		<polygon fill="#ECECEC" points="15.9,2.4 13.7,3 13.4,0.7 14.9,0.3 		"/>
		<polygon fill="#ECECEC" points="13.8,3 12.7,5 10.9,3.6 11.6,2.3 		"/>
		<polygon fill="#ECECEC" points="12.7,4.9 13.4,7.1 11.1,7.4 10.7,6 		"/>
		<polygon fill="#ECECEC" points="13.3,7 15.4,8.1 14,9.9 12.6,9.2 		"/>
		<polygon fill="#ECECEC" points="15.3,8.1 17.5,7.4 17.8,9.7 16.3,10.2 		"/>
		<polygon fill="#ECECEC" points="17.4,7.5 18.5,5.5 20.3,6.9 19.6,8.2 		"/>
		<polygon fill="#ECECEC" points="18.5,5.6 17.8,3.3 20.1,3.1 20.5,4.5 		"/>
		<polygon fill="#ECECEC" points="17.9,3.4 15.8,2.3 17.3,0.5 18.6,1.2 		"/>
	</g>
</g>
</svg>
