<?xml version="1.0" encoding="utf-8"?>
<!-- Generator: Adobe Illustrator 18.1.1, SVG Export Plug-In . SVG Version: 6.00 Build 0)  -->
<!DOCTYPE svg PUBLIC "-//W3C//DTD SVG 1.1//EN" "http://www.w3.org/Graphics/SVG/1.1/DTD/svg11.dtd">
<svg version="1.1" id="Layer_1" xmlns="http://www.w3.org/2000/svg" xmlns:xlink="http://www.w3.org/1999/xlink" x="0px" y="0px"
	 viewBox="0 0 20.6 20.7" enable-background="new 0 0 20.6 20.7" xml:space="preserve">
<g>
	<g>
		<path fill="#E0E0E1" d="M20.6,4.7V16c0,0.6-0.5,1.1-1.1,1.1H1.1C0.5,17.1,0,16.6,0,16V4.7c0-0.6,0.5-1.1,1.1-1.1h18.4
			c0.5,0,1,0.4,1.1,0.9C20.6,4.5,20.6,4.6,20.6,4.7z"/>
		<path fill="#A8A8A9" d="M0,16l10.3-7.9L20.6,16c0,0.6-0.5,1.1-1.1,1.1H1.1c-0.5,0-1-0.4-1.1-0.9L0,16z"/>
		<path fill="#E0E0E1" d="M0,16l10.3-7.3L20.6,16c0,0.6-0.5,1.1-1.1,1.1H1.1c-0.5,0-1-0.4-1.1-0.9L0,16z"/>
		<path fill="#A8A8A9" d="M20.6,4.7l-10.3,7.9L0,4.7c0-0.6,0.5-1.1,1.1-1.1h18.4c0.5,0,1,0.4,1.1,0.9L20.6,4.7z"/>
		<path fill="#E0E0E1" d="M20.6,4.7L10.3,12L0,4.7c0-0.6,0.5-1.1,1.1-1.1h18.4c0.5,0,1,0.4,1.1,0.9L20.6,4.7z"/>
	</g>
</g>
</svg>
