<?xml version="1.0" encoding="utf-8"?>
<!-- Generator: Adobe Illustrator 18.1.1, SVG Export Plug-In . SVG Version: 6.00 Build 0)  -->
<!DOCTYPE svg PUBLIC "-//W3C//DTD SVG 1.1//EN" "http://www.w3.org/Graphics/SVG/1.1/DTD/svg11.dtd">
<svg version="1.1" id="Layer_1" xmlns="http://www.w3.org/2000/svg" xmlns:xlink="http://www.w3.org/1999/xlink" x="0px" y="0px"
	 viewBox="0 0 20.6 20.7" enable-background="new 0 0 20.6 20.7" xml:space="preserve">
<g>
	<path fill="#E0E0E1" d="M18.5,8.7c-0.3-1.1-1-2.2-1.9-3c0-0.4-0.1-1.6,1-2.7c-0.4-0.5-2.4-0.3-3.4,1.1c-1-0.4-2.2-0.7-3.4-0.7
		c-4.4,0-7.9,3-7.9,6.7c0,1.5,0.6,2.9,1.6,4c-0.4-0.5,0.1-0.4,1.2-0.1c0.8,0.2,1.8,0.4,3.1,0.6c0.6,0.1,1.3,0.1,2,0.1
		c0.6,0,1.2,0,1.8-0.1c1.3-0.1,2.3-0.4,3.1-0.5c1.3-0.3,1.9-0.5,1.4,0.1c0.8-0.9,1.3-1.9,1.5-3c0.1-0.3,0.1-0.7,0.1-1.1
		C18.7,9.6,18.6,9.1,18.5,8.7z M16.3,8c-0.3,0-0.5-0.2-0.5-0.5c0-0.3,0.2-0.5,0.5-0.5c0.3,0,0.5,0.2,0.5,0.5C16.8,7.8,16.6,8,16.3,8
		z"/>
	<g>
		<path fill="#F470B5" d="M15.8,15.4L15.8,15.4C15.7,15.4,15.7,15.4,15.8,15.4C15.7,15.4,15.7,15.4,15.8,15.4z"/>
	</g>
	<g>
		<path fill="#474646" d="M16.6,5.6c-0.4-0.4-0.8-0.7-1.3-1C16.1,3.2,17.6,3,17.6,3C16.5,3.8,16.2,4.7,16.6,5.6z"/>
	</g>
	<g>
		<path fill="#FBB4FF" d="M16.7,5.8c0-0.1,0-0.1-0.1-0.2c0,0,0,0,0.1,0C16.7,5.7,16.7,5.8,16.7,5.8z"/>
	</g>
	<g>
		<circle fill="#FBB4FF" cx="16.3" cy="7.5" r="0.5"/>
	</g>
	<g>
		<path fill="#FBB4FF" d="M15.8,15.4L15.8,15.4C15.7,15.4,15.7,15.4,15.8,15.4C15.7,15.4,15.7,15.4,15.8,15.4z"/>
	</g>
	<g>
		<path fill="#E0E0E1" d="M3.8,9.5c0,0-0.1,0-0.3,0c-0.3,0-0.7,0-1.1-0.2C2.1,9.2,1.9,9.1,1.7,8.9C1.5,8.8,1.3,8.6,1.2,8.2
			C1.1,8.1,1.1,7.8,1.3,7.6c0.1-0.2,0.3-0.3,0.5-0.3c0.2,0,0.3,0,0.5,0l0.2,0c0.1,0,0.2,0.1,0.2,0.1C3,7.5,3.2,7.9,3.2,8.2
			C3.1,8.5,2.9,8.8,2.7,8.9C2.4,9.1,2.2,9.1,2,9.2c-0.2,0-0.4,0.1-0.6,0.1c-0.4,0-0.7,0-0.9-0.1c-0.2,0-0.3-0.1-0.3-0.1s0.1,0,0.3,0
			c0.2,0,0.5,0,0.9,0C1.5,9.1,1.7,9,1.9,9c0.2-0.1,0.4-0.2,0.6-0.3c0.2-0.1,0.3-0.3,0.3-0.5c0-0.2-0.1-0.3-0.3-0.3l-0.1,0l-0.2,0
			c-0.1,0-0.2,0-0.3,0.1C1.7,8,1.8,7.9,1.8,8C1.9,8.1,2,8.2,2.2,8.3c0.2,0.1,0.3,0.1,0.5,0.2c0.3,0.1,0.6,0.1,0.7,0.1
			c0.2,0,0.3,0,0.3,0L3.8,9.5z"/>
	</g>
	<path fill="#474646" d="M17.1,14.2C17.1,14.2,17.1,14.2,17.1,14.2C17.1,14.2,17.1,14.2,17.1,14.2C17,14.3,17,14.3,17,14.4
		c0,0,0,0,0,0c0,0-0.1,0.1-0.1,0.1c0,0-0.1,0.1-0.1,0.1c-0.1,0-0.1,0.1-0.2,0.1c0,0-0.1,0.1-0.1,0.1c0,0,0,0,0,0
		c0,0-0.1,0.1-0.1,0.1c-0.1,0-0.1,0.1-0.2,0.1c0,0,0,0,0,0c0,0-0.1,0.1-0.1,0.1c0,0-0.1,0.1-0.1,0.1c0,0,0,0-0.1,0c0,0,0,0,0.1,0v1
		c0,0.9-0.7,1.6-1.6,1.6c-0.8,0-1.4-0.5-1.5-1.3c0,0,0,0-0.1,0c0,0-0.1,0-0.1,0c0,0-0.1,0-0.1,0c-0.1,0-0.1,0-0.2,0
		c-0.1,0-0.1,0-0.2,0c-0.1,0-0.2,0-0.2,0c-0.1,0-0.1,0-0.2,0c-0.1,0-0.2,0-0.2,0c-0.1,0-0.1,0-0.2,0c-0.1,0-0.1,0-0.2,0h0
		c-0.1,0-0.1,0-0.2,0s-0.1,0-0.2,0h0c-0.1,0-0.1,0-0.2,0c-0.1,0-0.1,0-0.2,0c-0.1,0-0.2,0-0.2,0c-0.1,0-0.1,0-0.2,0
		c-0.1,0-0.2,0-0.2,0c-0.1,0-0.1,0-0.2,0c-0.1,0-0.1,0-0.2,0c0,0-0.1,0-0.1,0c0,0-0.1,0-0.1,0c0,0-0.1,0-0.1,0c-0.1,0-0.1,0-0.2,0
		c-0.1,0.7-0.8,1.3-1.5,1.3c-0.9,0-1.6-0.7-1.6-1.6v-1.1c0,0-0.1,0-0.1-0.1c0,0,0,0,0,0c0,0-0.1-0.1-0.1-0.1c0,0,0,0,0,0
		c0,0-0.1,0-0.1-0.1c0,0-0.1,0-0.1-0.1c-0.1-0.1-0.1-0.1-0.2-0.2c0,0,0,0-0.1-0.1c-0.1-0.1-0.2-0.2-0.3-0.3c0,0,0,0-0.1-0.1
		c0,0,0,0-0.1-0.1c0,0,0,0,0,0c0,0,0,0,0,0c0,0,0,0,0,0c0,0,0,0,0,0c-0.4-0.5,0.1-0.4,1.2-0.1c0.8,0.2,1.8,0.4,3.1,0.6
		c0.6,0.1,1.3,0.1,2,0.1c0.6,0,1.2,0,1.8-0.1c1.3-0.1,2.3-0.4,3.1-0.5C17,13.8,17.6,13.6,17.1,14.2z"/>
	<circle fill="#474646" cx="16.3" cy="7.5" r="0.5"/>
	<path fill="#E0E0E1" d="M20.5,9.6v0.5c0,0.5-0.4,0.9-0.9,0.9l-1,0.1c0.1-0.3,0.1-0.7,0.1-1.1c0-0.5-0.1-1-0.2-1.5l1.1,0.1
		C20.1,8.7,20.5,9.1,20.5,9.6z"/>
	<path fill="none" stroke="#FBB4FF" stroke-miterlimit="10" d="M19.2,8.1"/>
	<path fill="#474646" d="M12.4,10.2c0,0.7-0.3,1.5-1.6,1.5s-1.8-0.8-1.8-0.8l0.6-0.6c0,0,0.3,0.5,1.1,0.5c0.8,0,0.8-1.2,0-1.2
		c-1.4,0-1.6-0.8-1.6-1.5s0.3-1.5,1.6-1.5s1.8,0.8,1.8,0.8L11.9,8c0,0-0.3-0.5-1.1-0.5c-0.8,0-0.8,1.2,0,1.2
		C12.2,8.7,12.4,9.5,12.4,10.2z"/>
	<rect x="10.6" y="5.9" fill="#474646" width="0.5" height="6.4"/>
</g>
</svg>
