<?xml version="1.0" encoding="utf-8"?>
<!-- Generator: Adobe Illustrator 18.1.0, SVG Export Plug-In . SVG Version: 6.00 Build 0)  -->
<!DOCTYPE svg PUBLIC "-//W3C//DTD SVG 1.1//EN" "http://www.w3.org/Graphics/SVG/1.1/DTD/svg11.dtd">
<svg version="1.1" id="Layer_1" xmlns="http://www.w3.org/2000/svg" xmlns:xlink="http://www.w3.org/1999/xlink" x="0px" y="0px"
	 viewBox="0 0 213.3 213.8" enable-background="new 0 0 213.3 213.8" xml:space="preserve">
<g>
	<circle fill="#A5CC46" cx="106.8" cy="106.6" r="106.6"/>
	<g>
		<defs>
			<circle id="SVGID_5_" cx="106.8" cy="106.6" r="106.6"/>
		</defs>
		<clipPath id="SVGID_2_">
			<use xlink:href="#SVGID_5_"  overflow="visible"/>
		</clipPath>
		<g clip-path="url(#SVGID_2_)">
			<rect x="-16.1" y="50.5" fill="#A7A5A6" width="135" height="184.7"/>
			<rect x="-16.1" y="49.3" fill="#A7A5A6" width="135" height="25"/>
			<g>
				<path fill="#A7A5A6" d="M105.6,94.6H60.3c-2.1,0-3.8-1.7-3.8-3.8v-4.2c0-2.1,1.7-3.8,3.8-3.8h45.3c2.1,0,3.8,1.7,3.8,3.8v4.2
					C109.5,92.9,107.8,94.6,105.6,94.6z"/>
				<path fill="#A7A5A6" d="M113.9,101.9c-5.8-0.3-10.4-5.1-10.4-11h5.8C109.3,95.3,111.1,99.2,113.9,101.9z"/>
			</g>
			<g>
				<path fill="#A7A5A6" d="M105.6,133.2H60.3c-2.1,0-3.8-1.7-3.8-3.8v-4.2c0-2.1,1.7-3.8,3.8-3.8h45.3c2.1,0,3.8,1.7,3.8,3.8v4.2
					C109.5,131.5,107.8,133.2,105.6,133.2z"/>
				<path fill="#A7A5A6" d="M113.9,140.5c-5.8-0.3-10.4-5.1-10.4-11h5.8C109.3,133.8,111.1,137.7,113.9,140.5z"/>
			</g>
			<g>
				<path fill="#A7A5A6" d="M105.6,186.7H60.3c-2.1,0-3.8-1.7-3.8-3.8v-19c0-2.1,1.7-3.8,3.8-3.8h45.3c2.1,0,3.8,1.7,3.8,3.8v19
					C109.5,184.9,107.8,186.7,105.6,186.7z"/>
				<path fill="#A7A5A6" d="M113.9,194.1c-5.8-0.3-10.4-5.1-10.4-11h5.8C109.3,187.4,111.1,191.3,113.9,194.1z"/>
			</g>
			<g>
				<path fill="#A7A5A6" d="M-2.9,114h45.3c2.1,0,3.8-1.7,3.8-3.8v-4.2c0-2.1-1.7-3.8-3.8-3.8H-2.9c-2.1,0-3.8,1.7-3.8,3.8v4.2
					C-6.7,112.2-5,114-2.9,114z"/>
			</g>
			<g>
				<path fill="#A7A5A6" d="M-2.9,152.7h45.3c2.1,0,3.8-1.7,3.8-3.8v-4.2c0-2.1-1.7-3.8-3.8-3.8H-2.9c-2.1,0-3.8,1.7-3.8,3.8v4.2
					C-6.7,151-5,152.7-2.9,152.7z"/>
			</g>
			<g>
				<path fill="#A7A5A6" d="M-2.9,217.1h45.3c2.1,0,3.8-1.7,3.8-3.8v-15.3c0-2.1-1.7-3.8-3.8-3.8H-2.9c-2.1,0-3.8,1.7-3.8,3.8v15.3
					C-6.7,215.3-5,217.1-2.9,217.1z"/>
			</g>
			<g>
				<rect x="60.4" y="84" fill="#A7A5A6" width="35.1" height="1.9"/>
				<rect x="60.4" y="86.5" fill="#A7A5A6" width="32.3" height="1.9"/>
				<rect x="60.4" y="89" fill="#A7A5A6" width="34.3" height="1.9"/>
				<rect x="60.4" y="91.5" fill="#A7A5A6" width="12" height="1.9"/>
			</g>
			<g>
				<rect x="60.4" y="163.9" fill="#A7A5A6" width="35.1" height="1.9"/>
				<rect x="60.4" y="166.5" fill="#A7A5A6" width="32.3" height="1.9"/>
				<rect x="60.4" y="169" fill="#A7A5A6" width="34.3" height="1.9"/>
				<rect x="60.4" y="171.4" fill="#A7A5A6" width="12" height="1.9"/>
			</g>
			<g>
				<rect x="60.4" y="123.5" fill="#A7A5A6" width="35.1" height="1.9"/>
				<rect x="60.4" y="126.1" fill="#A7A5A6" width="32.3" height="1.9"/>
				<rect x="60.4" y="128.6" fill="#A7A5A6" width="12" height="1.9"/>
			</g>
			<g>
				<rect x="60.4" y="176.1" fill="#A7A5A6" width="35.1" height="1.9"/>
				<rect x="60.4" y="178.6" fill="#A7A5A6" width="32.3" height="1.9"/>
				<rect x="60.4" y="181.2" fill="#A7A5A6" width="12" height="1.9"/>
			</g>
			<g>
				<rect x="7" y="206.3" fill="#A7A5A6" width="35.1" height="1.9"/>
				<rect x="9.7" y="208.9" fill="#A7A5A6" width="32.3" height="1.9"/>
				<rect x="7.8" y="211.4" fill="#A7A5A6" width="34.3" height="1.9"/>
			</g>
			<g>
				<rect x="7" y="142.1" fill="#A7A5A6" width="35.1" height="1.9"/>
				<rect x="9.7" y="144.6" fill="#A7A5A6" width="32.3" height="1.9"/>
				<rect x="7.8" y="147.1" fill="#A7A5A6" width="34.3" height="1.9"/>
				<rect x="30" y="149.5" fill="#A7A5A6" width="12" height="1.9"/>
			</g>
			<g>
				<rect x="7" y="196.9" fill="#A7A5A6" width="35.1" height="1.9"/>
				<rect x="9.7" y="199.4" fill="#A7A5A6" width="32.3" height="1.9"/>
				<rect x="30" y="202" fill="#A7A5A6" width="12" height="1.9"/>
			</g>
			<g>
				<rect x="7" y="104.5" fill="#A7A5A6" width="35.1" height="1.9"/>
				<rect x="9.7" y="107.1" fill="#A7A5A6" width="32.3" height="1.9"/>
				<rect x="30" y="109.6" fill="#A7A5A6" width="12" height="1.9"/>
			</g>
			
				<rect x="104.2" y="56.6" transform="matrix(0.7071 -0.7071 0.7071 0.7071 -12.6019 92.3525)" fill="#A7A5A6" width="1.9" height="9.6"/>
			
				<rect x="104.2" y="56.6" transform="matrix(-0.7071 -0.7071 0.7071 -0.7071 136.1428 179.1683)" fill="#A7A5A6" width="1.9" height="9.6"/>
		</g>
		<g clip-path="url(#SVGID_2_)">
			<rect x="-18.5" y="51.7" fill="#E0E0E1" width="135" height="184.7"/>
			<rect x="-18.5" y="51.7" fill="#062043" width="135" height="25"/>
			<g>
				<path fill="#A5CC46" d="M103.2,97H57.9c-2.1,0-3.8-1.7-3.8-3.8V89c0-2.1,1.7-3.8,3.8-3.8h45.3c2.1,0,3.8,1.7,3.8,3.8v4.2
					C107.1,95.3,105.3,97,103.2,97z"/>
				<path fill="#A5CC46" d="M111.5,104.3c-5.8-0.3-10.4-5.1-10.4-11h5.8C106.9,97.7,108.7,101.6,111.5,104.3z"/>
			</g>
			<g>
				<path fill="#A5CC46" d="M103.2,135.6H57.9c-2.1,0-3.8-1.7-3.8-3.8v-4.2c0-2.1,1.7-3.8,3.8-3.8h45.3c2.1,0,3.8,1.7,3.8,3.8v4.2
					C107.1,133.9,105.3,135.6,103.2,135.6z"/>
				<path fill="#A5CC46" d="M111.5,142.9c-5.8-0.3-10.4-5.1-10.4-11h5.8C106.9,136.2,108.7,140.1,111.5,142.9z"/>
			</g>
			<g>
				<path fill="#A5CC46" d="M103.2,189.1H57.9c-2.1,0-3.8-1.7-3.8-3.8v-19c0-2.1,1.7-3.8,3.8-3.8h45.3c2.1,0,3.8,1.7,3.8,3.8v19
					C107.1,187.4,105.3,189.1,103.2,189.1z"/>
				<path fill="#A5CC46" d="M111.5,196.5c-5.8-0.3-10.4-5.1-10.4-11h5.8C106.9,189.8,108.7,193.7,111.5,196.5z"/>
			</g>
			<g>
				<path fill="#9AC5E9" d="M-5.3,116.4H40c2.1,0,3.8-1.7,3.8-3.8v-4.2c0-2.1-1.7-3.8-3.8-3.8H-5.3c-2.1,0-3.8,1.7-3.8,3.8v4.2
					C-9.2,114.7-7.4,116.4-5.3,116.4z"/>
			</g>
			<g>
				<path fill="#9AC5E9" d="M-5.3,155.1H40c2.1,0,3.8-1.7,3.8-3.8V147c0-2.1-1.7-3.8-3.8-3.8H-5.3c-2.1,0-3.8,1.7-3.8,3.8v4.2
					C-9.2,153.4-7.4,155.1-5.3,155.1z"/>
			</g>
			<g>
				<path fill="#9AC5E9" d="M-5.3,219.5H40c2.1,0,3.8-1.7,3.8-3.8v-15.3c0-2.1-1.7-3.8-3.8-3.8H-5.3c-2.1,0-3.8,1.7-3.8,3.8v15.3
					C-9.2,217.8-7.4,219.5-5.3,219.5z"/>
			</g>
			<g>
				<rect x="58" y="86.4" fill="#A8A8A9" width="35.1" height="1.9"/>
				<rect x="58" y="89" fill="#A8A8A9" width="32.3" height="1.9"/>
				<rect x="58" y="91.4" fill="#A8A8A9" width="34.3" height="1.9"/>
				<rect x="58" y="93.9" fill="#A8A8A9" width="12" height="1.9"/>
			</g>
			<g>
				<rect x="58" y="166.4" fill="#A8A8A9" width="35.1" height="1.9"/>
				<rect x="58" y="168.9" fill="#A8A8A9" width="32.3" height="1.9"/>
				<rect x="58" y="171.4" fill="#A8A8A9" width="34.3" height="1.9"/>
				<rect x="58" y="173.8" fill="#A8A8A9" width="12" height="1.9"/>
			</g>
			<g>
				<rect x="58" y="125.9" fill="#A8A8A9" width="35.1" height="1.9"/>
				<rect x="58" y="128.5" fill="#A8A8A9" width="32.3" height="1.9"/>
				<rect x="58" y="131" fill="#A8A8A9" width="12" height="1.9"/>
			</g>
			<g>
				<rect x="58" y="178.5" fill="#A8A8A9" width="35.1" height="1.9"/>
				<rect x="58" y="181" fill="#A8A8A9" width="32.3" height="1.9"/>
				<rect x="58" y="183.6" fill="#A8A8A9" width="12" height="1.9"/>
			</g>
			<g>
				<rect x="4.5" y="208.8" fill="#A8A8A9" width="35.1" height="1.9"/>
				<rect x="7.3" y="211.3" fill="#A8A8A9" width="32.3" height="1.9"/>
			</g>
			<g>
				<rect x="4.5" y="144.5" fill="#A8A8A9" width="35.1" height="1.9"/>
				<rect x="7.3" y="147" fill="#A8A8A9" width="32.3" height="1.9"/>
				<rect x="5.4" y="149.5" fill="#A8A8A9" width="34.3" height="1.9"/>
				<rect x="27.6" y="152" fill="#A8A8A9" width="12" height="1.9"/>
			</g>
			<g>
				<rect x="4.5" y="199.3" fill="#A8A8A9" width="35.1" height="1.9"/>
				<rect x="7.3" y="201.8" fill="#A8A8A9" width="32.3" height="1.9"/>
				<rect x="27.6" y="204.4" fill="#A8A8A9" width="12" height="1.9"/>
			</g>
			<g>
				<rect x="4.5" y="106.9" fill="#A8A8A9" width="35.1" height="1.9"/>
				<rect x="7.3" y="109.5" fill="#A8A8A9" width="32.3" height="1.9"/>
				<rect x="27.6" y="112" fill="#A8A8A9" width="12" height="1.9"/>
			</g>
			
				<rect x="101.8" y="59" transform="matrix(0.7071 -0.7071 0.7071 0.7071 -15.0136 91.3535)" fill="#A8A8A9" width="1.9" height="9.6"/>
			
				<rect x="101.8" y="59" transform="matrix(-0.7071 -0.7071 0.7071 -0.7071 130.3204 181.58)" fill="#A8A8A9" width="1.9" height="9.6"/>
		</g>
	</g>
	<g>
		<defs>
			<circle id="SVGID_7_" cx="106.8" cy="106.6" r="106.6"/>
		</defs>
		<clipPath id="SVGID_4_">
			<use xlink:href="#SVGID_7_"  overflow="visible"/>
		</clipPath>
		<g clip-path="url(#SVGID_4_)">
			<path fill="#E0E0E1" d="M203.2,32.7v67.8c0,3.6-2.9,6.5-6.5,6.5H87.1c-3.6,0-6.5-2.9-6.5-6.5V32.7c0-3.6,2.9-6.5,6.5-6.5h109.5
				c3.1,0,5.8,2.2,6.4,5.2C203.2,31.8,203.2,32.2,203.2,32.7z"/>
			<path fill="#A8A8A9" d="M80.6,100.2L141.9,53l61.3,47.2c0,3.6-2.9,6.5-6.5,6.5H87.1c-3.1,0-5.8-2.2-6.4-5.2L80.6,100.2z"/>
			<path fill="#E0E0E1" d="M80.6,100.2l61.3-43.7l61.3,43.7c0,3.6-2.9,6.5-6.5,6.5H87.1c-3.1,0-5.8-2.2-6.4-5.2L80.6,100.2z"/>
			<path fill="#A8A8A9" d="M203.2,32.7l-61.3,47.2L80.6,32.7c0-3.6,2.9-6.5,6.5-6.5h109.5c3.1,0,5.8,2.2,6.4,5.2L203.2,32.7z"/>
			<path fill="#E0E0E1" d="M203.2,32.7l-61.3,43.7L80.6,32.7c0-3.6,2.9-6.5,6.5-6.5h109.5c3.1,0,5.8,2.2,6.4,5.2L203.2,32.7z"/>
		</g>
	</g>
</g>
<linearGradient id="SVGID_6_" gradientUnits="userSpaceOnUse" x1="54.0392" y1="-20.6132" x2="160.7059" y2="-20.6132" gradientTransform="matrix(0.7071 0.7071 -0.7071 0.7071 53.973 83.4476)">
	<stop  offset="0" style="stop-color:#FFFFFF"/>
	<stop  offset="4.800099e-02" style="stop-color:#E4E4E4;stop-opacity:0.952"/>
	<stop  offset="0.152" style="stop-color:#AFAFAF;stop-opacity:0.848"/>
	<stop  offset="0.2603" style="stop-color:#808080;stop-opacity:0.7397"/>
	<stop  offset="0.3706" style="stop-color:#595959;stop-opacity:0.6294"/>
	<stop  offset="0.4835" style="stop-color:#393939;stop-opacity:0.5165"/>
	<stop  offset="0.5998" style="stop-color:#202020;stop-opacity:0.4002"/>
	<stop  offset="0.7208" style="stop-color:#0E0E0E;stop-opacity:0.2792"/>
	<stop  offset="0.8497" style="stop-color:#030303;stop-opacity:0.1503"/>
	<stop  offset="1" style="stop-color:#000000;stop-opacity:0"/>
</linearGradient>
<path opacity="0.31" fill="url(#SVGID_6_)" d="M182.2,31.7c41.7,41.7,41.7,109.2,0,150.8s-109.2,41.7-150.8,0"/>
</svg>
