<?xml version="1.0" encoding="utf-8"?>
<!-- Generator: Adobe Illustrator 18.1.0, SVG Export Plug-In . SVG Version: 6.00 Build 0)  -->
<!DOCTYPE svg PUBLIC "-//W3C//DTD SVG 1.1//EN" "http://www.w3.org/Graphics/SVG/1.1/DTD/svg11.dtd">
<svg version="1.1" id="Layer_1" xmlns="http://www.w3.org/2000/svg" xmlns:xlink="http://www.w3.org/1999/xlink" x="0px" y="0px"
	 viewBox="0 0 213.3 213.8" enable-background="new 0 0 213.3 213.8" xml:space="preserve">
<path fill="#E0E0E1" d="M174.8,97.3V72.7c13.4,1.5,18.8,9.3,18.8,9.3l13.6-13.6c0,0-8.3-14.1-32.4-15.8V38.4h-9.6v14.2
	c-10.9,0.9-17.8,4.9-22.1,10.1c-4.8-4.1-13.5-9.2-27.3-10.2V38.4h-9.6v14.2c-23.7,2-28.6,18.5-28.6,31.4c0,13,3.7,29.6,28.6,31.4
	v24.6c-13.4-1.5-18.8-9.3-18.8-9.3l-13.7,13.6c0,0,8.3,14.1,32.4,15.8v14.2h9.6v-14.2c10.9-0.9,17.8-4.9,22.1-10.1
	c4.8,4.1,13.5,9.2,27.3,10.2v14.2h9.6v-14.2c23.6-1.9,28.6-18.4,28.6-31.4C203.4,115.8,199.7,99.2,174.8,97.3z M106.2,73.2v23.1
	C96.2,92.5,95.8,76.9,106.2,73.2z M115.8,139.6v-23.1C125.8,120.3,126.2,135.9,115.8,139.6z M165.2,140.1
	c-13.4-1.6-18.7-9.3-18.7-9.3l-2.2,2.2c0.1-1.4,0.2-2.9,0.2-4.2c0-13-3.7-29.6-28.6-31.4V72.7c13.4,1.5,18.8,9.3,18.8,9.3l2.2-2.2
	c-0.1,1.4-0.2,2.8-0.2,4.2c0,13,3.7,29.6,28.6,31.4V140.1z M165.2,96.3c-10.1-3.8-10.4-19.4,0-23.1V96.3z M174.8,139.6v-23.1
	C184.8,120.3,185.2,135.9,174.8,139.6z"/>
</svg>
