<?xml version="1.0" encoding="utf-8"?>
<!-- Generator: Adobe Illustrator 18.1.0, SVG Export Plug-In . SVG Version: 6.00 Build 0)  -->
<!DOCTYPE svg PUBLIC "-//W3C//DTD SVG 1.1//EN" "http://www.w3.org/Graphics/SVG/1.1/DTD/svg11.dtd">
<svg version="1.1" id="Layer_1" xmlns="http://www.w3.org/2000/svg" xmlns:xlink="http://www.w3.org/1999/xlink" x="0px" y="0px"
	 viewBox="0 0 213.3 213.8" enable-background="new 0 0 213.3 213.8" xml:space="preserve">
<path fill="none" stroke="#E0E0E1" stroke-miterlimit="10" d="M186.9,66.5"/>
<g>
	<g>
		<rect x="72.3" y="18" fill="#E0E0E1" width="135" height="177.8"/>
		<g>
			<path fill="#474646" d="M194,56.4h-45.3c-2.1,0-3.8-1.7-3.8-3.8v-4.2c0-2.1,1.7-3.8,3.8-3.8H194c2.1,0,3.8,1.7,3.8,3.8v4.2
				C197.9,54.7,196.2,56.4,194,56.4z"/>
			<path fill="#474646" d="M202.3,63.7c-5.8-0.3-10.4-5.1-10.4-11h5.8C197.7,57,199.5,60.9,202.3,63.7z"/>
		</g>
		<g>
			<path fill="#474646" d="M194,95h-45.3c-2.1,0-3.8-1.7-3.8-3.8v-4.2c0-2.1,1.7-3.8,3.8-3.8H194c2.1,0,3.8,1.7,3.8,3.8v4.2
				C197.9,93.3,196.2,95,194,95z"/>
			<path fill="#474646" d="M202.3,102.2c-5.8-0.3-10.4-5.1-10.4-11h5.8C197.7,95.6,199.5,99.5,202.3,102.2z"/>
		</g>
		<g>
			<path fill="#474646" d="M194,148.4h-45.3c-2.1,0-3.8-1.7-3.8-3.8v-19c0-2.1,1.7-3.8,3.8-3.8H194c2.1,0,3.8,1.7,3.8,3.8v19
				C197.9,146.7,196.2,148.4,194,148.4z"/>
			<path fill="#474646" d="M202.3,155.8c-5.8-0.3-10.4-5.1-10.4-11h5.8C197.7,149.2,199.5,153.1,202.3,155.8z"/>
		</g>
		<g>
			<path fill="#474646" d="M85.5,75.7h45.3c2.1,0,3.8-1.7,3.8-3.8v-4.2c0-2.1-1.7-3.8-3.8-3.8H85.5c-2.1,0-3.8,1.7-3.8,3.8v4.2
				C81.7,74,83.4,75.7,85.5,75.7z"/>
			<path fill="#474646" d="M77.2,83c5.8-0.3,10.4-5.1,10.4-11h-5.8C81.8,76.3,80,80.3,77.2,83z"/>
		</g>
		<g>
			<path fill="#474646" d="M85.5,114.5h45.3c2.1,0,3.8-1.7,3.8-3.8v-4.2c0-2.1-1.7-3.8-3.8-3.8H85.5c-2.1,0-3.8,1.7-3.8,3.8v4.2
				C81.7,112.8,83.4,114.5,85.5,114.5z"/>
			<path fill="#474646" d="M77.2,121.7c5.8-0.3,10.4-5.1,10.4-11h-5.8C81.8,115.1,80,119,77.2,121.7z"/>
		</g>
		<g>
			<path fill="#474646" d="M85.5,178.8h45.3c2.1,0,3.8-1.7,3.8-3.8v-15.3c0-2.1-1.7-3.8-3.8-3.8H85.5c-2.1,0-3.8,1.7-3.8,3.8V175
				C81.7,177.1,83.4,178.8,85.5,178.8z"/>
			<path fill="#474646" d="M77.2,185.1c5.8-0.3,10.4-5.1,10.4-11h-5.8C81.8,178.4,80,182.4,77.2,185.1z"/>
		</g>
		<g>
			<rect x="148.8" y="45.8" fill="#A8A8A9" width="35.1" height="1.9"/>
			<rect x="148.8" y="48.3" fill="#A8A8A9" width="32.3" height="1.9"/>
			<rect x="148.8" y="50.8" fill="#A8A8A9" width="34.3" height="1.9"/>
			<rect x="148.8" y="53.2" fill="#A8A8A9" width="12" height="1.9"/>
		</g>
		<g>
			<rect x="148.8" y="125.7" fill="#A8A8A9" width="35.1" height="1.9"/>
			<rect x="148.8" y="128.3" fill="#A8A8A9" width="32.3" height="1.9"/>
			<rect x="148.8" y="130.7" fill="#A8A8A9" width="34.3" height="1.9"/>
			<rect x="148.8" y="133.2" fill="#A8A8A9" width="12" height="1.9"/>
		</g>
		<g>
			<rect x="148.8" y="85.3" fill="#A8A8A9" width="35.1" height="1.9"/>
			<rect x="148.8" y="87.8" fill="#A8A8A9" width="32.3" height="1.9"/>
			<rect x="148.8" y="90.4" fill="#A8A8A9" width="12" height="1.9"/>
		</g>
		<g>
			<rect x="148.8" y="137.8" fill="#A8A8A9" width="35.1" height="1.9"/>
			<rect x="148.8" y="140.4" fill="#A8A8A9" width="32.3" height="1.9"/>
			<rect x="148.8" y="142.9" fill="#A8A8A9" width="12" height="1.9"/>
		</g>
		<g>
			<rect x="95.4" y="168.1" fill="#A8A8A9" width="35.1" height="1.9"/>
			<rect x="98.1" y="170.7" fill="#A8A8A9" width="32.3" height="1.9"/>
			<rect x="96.2" y="173.1" fill="#A8A8A9" width="34.3" height="1.9"/>
			<rect x="118.4" y="175.6" fill="#A8A8A9" width="12" height="1.9"/>
		</g>
		<g>
			<rect x="95.4" y="103.8" fill="#A8A8A9" width="35.1" height="1.9"/>
			<rect x="98.1" y="106.4" fill="#A8A8A9" width="32.3" height="1.9"/>
			<rect x="96.2" y="108.9" fill="#A8A8A9" width="34.3" height="1.9"/>
			<rect x="118.4" y="111.3" fill="#A8A8A9" width="12" height="1.9"/>
		</g>
		<g>
			<rect x="95.4" y="158.6" fill="#A8A8A9" width="35.1" height="1.9"/>
			<rect x="98.1" y="161.2" fill="#A8A8A9" width="32.3" height="1.9"/>
			<rect x="118.4" y="163.7" fill="#A8A8A9" width="12" height="1.9"/>
		</g>
		<g>
			<rect x="95.4" y="66.3" fill="#A8A8A9" width="35.1" height="1.9"/>
			<rect x="98.1" y="68.8" fill="#A8A8A9" width="32.3" height="1.9"/>
			<rect x="118.4" y="71.4" fill="#A8A8A9" width="12" height="1.9"/>
		</g>
		
			<rect x="192.6" y="22.4" transform="matrix(0.7071 -0.7071 0.7071 0.7071 37.4884 144.8372)" fill="#A8A8A9" width="1.9" height="9.6"/>
		
			<rect x="192.6" y="22.4" transform="matrix(-0.7071 -0.7071 0.7071 -0.7071 311.2491 183.2559)" fill="#A8A8A9" width="1.9" height="9.6"/>
	</g>
	<line fill="none" stroke="#474646" stroke-width="2" stroke-miterlimit="10" x1="72.3" y1="36.1" x2="207.2" y2="36.1"/>
</g>
</svg>
