<?xml version="1.0" encoding="utf-8"?>
<!-- Generator: Adobe Illustrator 18.1.0, SVG Export Plug-In . SVG Version: 6.00 Build 0)  -->
<!DOCTYPE svg PUBLIC "-//W3C//DTD SVG 1.1//EN" "http://www.w3.org/Graphics/SVG/1.1/DTD/svg11.dtd">
<svg version="1.1" id="Layer_1" xmlns="http://www.w3.org/2000/svg" xmlns:xlink="http://www.w3.org/1999/xlink" x="0px" y="0px"
	 viewBox="0 0 213.3 213.8" enable-background="new 0 0 213.3 213.8" xml:space="preserve">
<g>
	<path fill="#E0E0E1" d="M207.2,92.9c0,20.6-16.5,37.4-37,37.8v0.1H55.5v-0.1c-20.9,0-37.8-16.9-37.8-37.8c0-17,11.2-31.3,26.5-36.1
		C49.3,40.7,64.3,29,82.1,29c6.7,0,13,1.7,18.6,4.6c6.1-12.8,19.2-21.7,34.3-21.7c21,0,37.9,17,37.9,37.9c0,1.8-0.1,3.6-0.4,5.3
		C192,56.8,207.2,73,207.2,92.9z"/>
	<path fill="none" stroke="#E0E0E1" stroke-width="6" stroke-linecap="round" stroke-miterlimit="10" d="M100.9,172.6
		c0,0,5.1-10.8,16.7-10.8s16.2,10.8,16.2,10.8"/>
	<path fill="none" stroke="#E0E0E1" stroke-width="6" stroke-linecap="round" stroke-miterlimit="10" d="M91.7,163.4
		c0,0,8-13.2,26.1-13.2s25.3,13.2,25.3,13.2"/>
	<path fill="none" stroke="#E0E0E1" stroke-width="6" stroke-linecap="round" stroke-miterlimit="10" d="M82.7,154.8
		c0,0,10.8-15.8,35.3-15.8s34.2,15.8,34.2,15.8"/>
	<circle fill="none" stroke="#E0E0E1" stroke-width="5" stroke-miterlimit="10" cx="118.2" cy="188.3" r="12.6"/>
</g>
</svg>
