<?xml version="1.0" encoding="utf-8"?>
<!-- Generator: Adobe Illustrator 18.1.0, SVG Export Plug-In . SVG Version: 6.00 Build 0)  -->
<!DOCTYPE svg PUBLIC "-//W3C//DTD SVG 1.1//EN" "http://www.w3.org/Graphics/SVG/1.1/DTD/svg11.dtd">
<svg version="1.1" id="Layer_1" xmlns="http://www.w3.org/2000/svg" xmlns:xlink="http://www.w3.org/1999/xlink" x="0px" y="0px"
	 viewBox="0 0 213.3 213.8" enable-background="new 0 0 213.3 213.8" xml:space="preserve">
<g>
	<path fill="#E0E0E1" d="M207.2,196.6c-15.9-0.8-29.6-10.2-36.6-23.6c-0.5,0-1,0.1-1.4,0.1h-52.6c-10.8,0-19.6-8.8-19.6-19.6V35.8
		c0-10.8,8.8-19.6,19.6-19.6h52.6c10.9,0,19.6,8.8,19.6,19.6l0,117.6c0,0.5,0,1-0.1,1.4C189.3,171.3,196.3,186.1,207.2,196.6z"/>
	<polygon fill="#474646" points="156.7,134.8 129.1,134.8 129.1,114.6 122.2,37.1 122.2,27.3 163.6,27.3 163.6,37.1 156.7,114.6 	
		"/>
	<polygon fill="#474646" points="129.1,142.9 129.1,163 156.7,163 156.7,142.9 	"/>
</g>
</svg>
